<?xml version="1.0" standalone="no"?>
<!DOCTYPE svg PUBLIC "-//W3C//DTD SVG 20010904//EN"
 "http://www.w3.org/TR/2001/REC-SVG-20010904/DTD/svg10.dtd">
<svg version="1.0" xmlns="http://www.w3.org/2000/svg"
 width="1563.000000pt" height="1563.000000pt" viewBox="0 0 1563.000000 1563.000000"
 preserveAspectRatio="xMidYMid meet">
<metadata>
Created by potrace 1.14, written by Peter Selinger 2001-2017
</metadata>
<g transform="translate(0.000000,1563.000000) scale(0.100000,-0.100000)"
fill="#000000" stroke="none">
<path d="M6059 12502 c-93 -48 -137 -156 -109 -262 14 -53 90 -133 136 -144
298 -70 572 -225 801 -455 l92 -92 -18 53 c-71 202 -221 464 -346 607 -112
128 -270 262 -355 300 -66 30 -135 27 -201 -7z"/>
<path d="M10205 12517 c-69 -27 -197 -127 -298 -231 -129 -133 -234 -283 -329
-470 -39 -78 -108 -241 -108 -257 0 -4 39 31 88 79 48 48 107 103 132 122 25
19 47 37 50 41 14 17 195 130 265 165 114 57 306 126 352 127 24 1 107 73 126
111 57 110 14 246 -96 301 -56 28 -129 32 -182 12z"/>
<path d="M8063 12222 c-93 -18 -235 -89 -306 -152 -31 -29 -77 -80 -101 -113
-38 -55 -92 -167 -100 -207 -32 -166 -23 -283 30 -416 55 -139 163 -260 292
-327 118 -61 194 -80 323 -79 395 4 692 362 629 757 -50 311 -316 542 -632
549 -37 1 -97 -4 -135 -12z m-29 -123 c26 -12 36 -29 42 -69 3 -30 -9 -47 -56
-80 -168 -116 -246 -326 -200 -543 9 -45 9 -65 0 -87 -19 -47 -92 -60 -128
-23 -28 27 -45 122 -44 245 1 209 94 393 260 519 68 51 85 56 126 38z"/>
<path d="M5715 11814 c-37 -8 -77 -48 -77 -76 0 -55 46 -93 330 -269 245 -152
343 -222 452 -326 109 -104 125 -140 92 -219 -9 -21 -27 -38 -51 -49 -38 -17
-77 -17 -318 0 -106 7 -400 17 -480 17 -161 -2 -221 -17 -266 -71 -57 -69 -44
-171 28 -218 35 -23 62 -28 220 -38 125 -7 175 -14 290 -36 127 -25 119 -23
206 -49 484 -144 893 -430 1204 -842 130 -172 227 -350 311 -573 29 -77 55
-133 57 -125 3 8 17 71 32 140 24 110 118 421 145 475 5 11 30 67 56 125 48
108 118 246 172 338 l32 52 -100 148 c-311 461 -780 910 -1265 1209 -153 94
-368 207 -505 265 -98 41 -291 103 -365 116 -55 9 -168 13 -200 6z"/>
<path d="M10569 11815 c-3 -2 -20 -7 -39 -10 -299 -52 -770 -287 -1170 -584
-209 -155 -476 -401 -669 -616 -212 -235 -432 -571 -575 -875 -53 -112 -133
-311 -141 -350 -2 -8 -15 -51 -29 -95 -29 -93 -56 -197 -63 -240 -2 -16 -8
-46 -13 -65 -14 -54 -39 -235 -47 -340 -12 -152 -5 -522 12 -608 2 -12 6 -47
10 -79 3 -32 8 -65 11 -74 2 -10 7 -32 9 -49 18 -145 127 -494 209 -670 l34
-75 -1 165 c-1 146 8 329 18 393 2 12 6 45 10 72 3 28 8 59 10 70 3 11 7 33
10 49 25 159 123 504 178 627 8 19 24 58 36 86 126 310 343 662 585 953 113
137 391 423 496 510 36 30 67 57 70 60 3 3 37 28 75 57 249 181 496 297 795
373 155 39 249 54 420 65 146 10 167 13 199 29 80 42 103 151 45 222 -59 74
-154 87 -514 70 -160 -8 -191 -9 -397 -21 -116 -6 -125 -5 -163 16 -51 29 -69
81 -49 143 30 91 237 256 587 470 185 113 289 194 293 226 4 36 -3 50 -33 71
-26 19 -47 23 -118 26 -48 1 -89 1 -91 -2z"/>
<path d="M4417 11528 c-112 -24 -194 -119 -204 -238 -5 -49 -1 -66 26 -122 43
-91 107 -137 212 -153 39 -6 67 1 195 43 188 64 301 89 481 106 71 7 295 8
333 2 14 -2 54 -7 89 -11 35 -3 95 -12 133 -20 38 -8 72 -15 76 -15 4 0 -30
25 -76 55 -88 59 -265 154 -372 199 -36 15 -72 31 -80 35 -22 12 -202 66 -285
86 -161 39 -425 56 -528 33z"/>
<path d="M11685 11530 c-22 -5 -56 -10 -75 -13 -19 -3 -46 -8 -60 -11 -14 -3
-35 -8 -47 -10 -154 -31 -413 -132 -588 -230 -87 -49 -227 -137 -223 -142 2
-1 35 3 73 11 163 31 450 47 545 31 14 -2 57 -7 95 -11 90 -8 286 -56 395 -96
118 -43 148 -49 200 -43 137 17 230 119 232 252 2 114 -47 193 -151 244 -41
20 -63 23 -201 24 -85 1 -173 -2 -195 -6z"/>
<path d="M5188 10414 c-2 -1 -28 -5 -58 -8 -151 -17 -333 -79 -373 -129 -48
-59 -46 -137 4 -186 62 -63 136 -58 212 13 99 92 166 140 257 186 72 36 223
90 252 90 43 0 4 19 -53 25 -62 7 -237 14 -241 9z"/>
<path d="M11128 10415 c-2 -1 -38 -5 -81 -8 -121 -10 -120 -16 13 -51 120 -32
287 -131 404 -241 55 -52 79 -65 117 -67 107 -4 178 111 127 204 -27 48 -147
109 -260 134 -91 20 -308 39 -320 29z"/>
<path d="M5865 10197 c-146 -69 -141 -259 8 -322 43 -18 87 -14 170 14 30 11
79 24 108 30 30 6 65 14 79 17 14 3 86 7 160 9 127 3 246 -8 354 -34 46 -11
43 -9 -57 58 -142 95 -308 169 -473 211 -105 27 -307 36 -349 17z"/>
<path d="M10296 10193 c-165 -29 -378 -119 -543 -229 -46 -31 -83 -58 -81 -60
2 -2 20 1 39 6 101 27 173 35 324 34 152 -1 262 -18 391 -60 68 -22 83 -24
129 -14 76 16 130 79 134 156 4 65 -32 129 -89 164 -34 20 -201 22 -304 3z"/>
<path d="M9747 9304 c-1 -1 -49 -4 -107 -8 -186 -10 -256 -32 -97 -29 51 0
117 -3 147 -7 30 -5 75 -12 100 -15 85 -13 307 -93 451 -163 79 -39 252 -135
384 -214 373 -225 482 -283 725 -390 260 -114 414 -165 596 -194 21 -3 50 -8
64 -11 50 -8 416 -11 460 -3 25 4 63 10 85 13 76 11 219 58 297 99 141 73 243
198 275 338 2 8 5 49 7 90 4 88 -16 169 -66 262 -33 63 -142 184 -187 208
l-24 12 22 -30 c58 -82 66 -224 18 -322 -77 -157 -274 -272 -541 -314 -81 -12
-287 -14 -386 -2 -273 31 -520 109 -932 294 -451 203 -759 317 -929 346 -19 3
-45 8 -59 11 -75 14 -295 35 -303 29z"/>
<path d="M3873 9221 c-69 -55 -107 -98 -148 -166 -156 -261 -67 -558 212 -703
76 -39 183 -78 243 -88 14 -3 50 -9 80 -14 124 -21 347 -29 450 -16 180 23
222 31 315 57 38 11 77 22 85 24 22 5 230 83 265 99 17 8 93 42 170 77 77 35
191 92 254 126 63 35 116 63 118 63 2 0 16 8 31 19 34 23 381 227 430 253 21
10 66 34 102 53 126 67 318 144 425 171 17 4 35 8 40 10 74 18 198 32 304 33
86 1 89 6 11 16 -30 4 -66 9 -80 11 -38 5 -272 5 -300 0 -14 -2 -52 -7 -85
-11 -224 -24 -486 -112 -1010 -340 -275 -119 -486 -202 -564 -221 -9 -2 -60
-15 -114 -29 -175 -46 -325 -64 -497 -60 -172 4 -185 6 -303 36 -281 71 -461
250 -452 449 3 56 34 141 62 173 26 28 8 19 -44 -22z"/>
<path d="M9897 9079 c7 -7 15 -10 18 -7 3 3 -2 9 -12 12 -14 6 -15 5 -6 -5z"/>
<path d="M9930 9067 c0 -3 57 -37 126 -78 70 -40 188 -115 263 -167 75 -51
195 -132 266 -180 72 -48 132 -90 133 -94 2 -5 9 -8 15 -8 6 0 19 -7 29 -17
10 -9 27 -21 38 -27 10 -6 65 -39 122 -73 365 -219 768 -397 1008 -447 210
-43 506 -64 650 -46 36 5 86 11 111 14 121 14 242 52 363 114 236 121 365 363
323 609 -11 67 -27 93 -27 45 0 -18 0 -33 0 -34 -1 -5 -20 -82 -24 -98 -16
-61 -83 -169 -140 -224 -125 -123 -353 -218 -601 -251 -97 -13 -438 -12 -540
1 -147 19 -415 85 -500 123 -11 5 -36 15 -55 22 -84 30 -328 138 -475 209
-172 83 -195 96 -590 332 -242 144 -495 284 -495 275z"/>
<path d="M6780 8984 c-101 -53 -363 -201 -454 -257 -11 -7 -44 -27 -72 -44
-29 -18 -55 -33 -57 -33 -3 0 -34 -18 -70 -39 -188 -115 -375 -206 -712 -348
-256 -107 -467 -165 -698 -190 -88 -10 -445 -10 -507 0 -344 53 -560 160 -679
337 -55 82 -89 173 -96 260 -2 19 -4 40 -5 45 -1 6 -8 -12 -16 -40 -14 -49
-19 -166 -9 -215 14 -73 28 -121 36 -126 5 -3 9 -12 9 -21 0 -24 77 -133 129
-181 124 -117 356 -208 584 -229 95 -9 293 -9 387 -1 355 33 545 90 925 274
298 144 418 216 840 499 285 191 390 257 520 324 43 23 81 44 84 46 14 15 -28
-4 -139 -61z"/>
<path d="M928 6717 c-1 -1 -2 -545 -3 -1209 l-2 -1208 36 -1 c175 -4 980 1
1022 6 187 23 366 105 483 221 50 51 136 175 136 197 0 7 4 17 9 23 4 5 13 29
20 54 29 117 34 236 11 330 -6 25 -10 47 -10 50 2 11 -73 155 -100 194 -60 86
-167 180 -235 206 l-27 10 43 32 c142 101 238 298 224 463 -17 202 -61 310
-170 419 -96 96 -234 163 -415 201 -30 7 -1017 18 -1022 12z m967 -401 c52
-12 129 -52 162 -84 50 -49 75 -107 78 -181 5 -153 -65 -253 -205 -292 -30 -8
-133 -13 -307 -13 -257 -1 -263 -1 -264 19 0 24 0 559 0 561 2 5 512 -5 536
-10z m120 -974 c74 -34 123 -71 155 -117 86 -125 72 -321 -31 -423 -78 -78
-117 -86 -476 -88 l-303 -1 -1 48 c0 27 0 171 0 319 0 149 0 275 0 281 1 8 90
10 304 7 289 -3 304 -4 352 -26z"/>
<path d="M3249 6672 c0 -26 -1 -380 -1 -787 0 -680 2 -810 17 -887 3 -16 7
-38 9 -50 41 -231 171 -437 342 -544 150 -94 327 -138 554 -138 464 0 754 193
874 584 51 166 54 221 55 1077 l2 792 -218 -2 -218 -2 -1 -765 c-1 -421 -4
-787 -7 -814 -13 -100 -19 -131 -39 -185 -28 -73 -57 -119 -102 -159 -44 -39
-122 -79 -168 -87 -99 -19 -136 -22 -211 -19 -248 11 -380 115 -434 339 -14
60 -17 156 -20 675 -2 333 -3 698 -3 812 l0 207 -215 -1 -215 0 -1 -46z"/>
<path d="M5867 6712 c-3 -4 -4 -548 -4 -1209 l0 -1203 26 -1 c14 0 108 -1 208
-2 l183 -2 1 905 c0 798 2 900 15 865 8 -22 18 -49 23 -60 5 -11 19 -47 31
-80 11 -33 25 -69 30 -80 5 -11 119 -315 253 -675 l245 -655 213 0 213 0 17
45 c25 64 208 555 230 615 10 28 32 86 49 130 17 44 37 98 45 120 7 22 67 184
134 360 l121 320 0 -902 0 -903 23 -1 c12 0 105 -1 207 -1 l185 -1 0 1209 0
1209 -287 2 c-208 1 -289 -2 -296 -10 -5 -7 -46 -113 -91 -237 -45 -124 -86
-234 -92 -245 -5 -11 -24 -63 -43 -115 -19 -52 -39 -106 -45 -120 -33 -79
-361 -969 -361 -981 -1 -29 -26 35 -276 703 -140 376 -282 756 -315 844 l-61
162 -288 1 c-159 0 -291 -3 -293 -7z"/>
<path d="M9147 6714 c-4 -4 -7 -550 -7 -1213 l0 -1206 387 2 c427 1 544 7 643
29 14 3 36 8 50 10 57 11 176 47 240 75 350 149 560 433 624 844 14 88 15 400
1 470 -3 17 -12 67 -21 113 -16 91 -62 229 -102 307 -92 182 -254 342 -447
438 -61 30 -224 86 -274 93 -20 3 -42 7 -50 10 -14 4 -26 6 -121 20 -64 9
-915 16 -923 8z m918 -408 c17 -3 57 -11 90 -18 260 -51 438 -233 481 -488 3
-19 8 -38 9 -41 5 -8 17 -167 19 -252 1 -39 -4 -117 -12 -172 -47 -352 -242
-554 -592 -616 -90 -15 -246 -22 -450 -19 l-36 0 0 811 0 811 231 -5 c126 -3
244 -8 260 -11z"/>
<path d="M12275 6039 c-359 -32 -610 -251 -712 -624 -25 -91 -27 -115 -27
-265 1 -144 4 -177 27 -262 71 -267 227 -455 462 -555 39 -17 88 -34 110 -38
22 -5 45 -9 50 -11 79 -19 239 -24 357 -10 187 22 379 118 521 260 l39 40 -23
19 c-13 11 -55 47 -93 81 -38 33 -78 69 -90 79 -12 10 -33 29 -48 43 -15 13
-31 24 -34 24 -4 0 -28 -19 -53 -43 -152 -142 -430 -176 -606 -72 -80 46 -146
151 -174 274 l-8 39 584 0 c321 0 586 2 589 5 21 21 20 300 -1 360 -3 7 -7 23
-9 37 -15 77 -40 149 -78 224 -145 289 -419 427 -783 395z m191 -354 c50 -9
127 -50 168 -91 56 -56 96 -142 111 -238 l6 -36 -389 0 -390 0 9 40 c33 147
116 259 226 306 63 27 168 35 259 19z"/>
<path d="M14218 6045 c-2 -1 -34 -5 -73 -9 -181 -16 -360 -114 -440 -241 -57
-90 -74 -145 -79 -252 -9 -199 71 -341 240 -426 69 -35 186 -74 364 -122 188
-50 256 -105 247 -198 -6 -64 -46 -113 -122 -152 -54 -27 -69 -30 -155 -30
-88 0 -101 3 -163 33 -76 38 -134 100 -173 189 l-23 52 -88 -38 c-109 -47
-237 -104 -242 -107 -8 -6 34 -96 68 -148 133 -203 360 -324 616 -330 187 -3
336 37 467 125 194 132 272 357 207 602 -30 113 -144 234 -279 295 -47 21
-193 71 -345 117 -162 49 -220 93 -218 166 3 125 214 186 377 108 52 -24 115
-82 151 -136 15 -24 29 -43 31 -43 1 0 58 30 126 67 68 36 140 75 160 86 l37
20 -41 60 c-128 188 -330 298 -570 310 -43 2 -79 3 -80 2z"/>
<path d="M1321 3517 c-12 -27 -21 -51 -21 -53 0 -2 -8 -23 -19 -47 -10 -23
-37 -86 -59 -139 -39 -95 -40 -98 -18 -98 17 0 25 11 39 49 l17 50 81 -2 81
-2 18 -45 c12 -31 24 -46 39 -48 18 -3 20 0 12 20 -5 13 -41 100 -79 193 l-71
170 -20 -48z m66 -157 c9 -19 17 -38 19 -41 5 -9 -115 -8 -121 1 -5 7 1 22 41
118 l16 37 15 -40 c8 -22 22 -56 30 -75z"/>
<path d="M10634 3370 c0 -175 1 -190 18 -190 16 0 18 13 20 129 l3 130 72
-102 c40 -56 83 -117 95 -134 13 -18 25 -33 28 -33 3 0 5 83 5 185 0 179 0
185 -20 185 -19 0 -20 -6 -18 -131 1 -124 1 -130 -15 -108 -9 13 -19 26 -22
29 -3 3 -41 56 -84 118 -42 61 -78 112 -79 112 -1 0 -2 -85 -3 -190z"/>
<path d="M13585 3513 c-10 -26 -26 -66 -36 -88 -10 -22 -34 -80 -54 -130 -20
-49 -39 -96 -42 -102 -3 -8 3 -13 15 -13 14 0 25 14 40 50 l21 49 79 0 79 -1
17 -49 c13 -35 23 -49 37 -49 10 0 19 3 19 6 0 5 -51 133 -75 189 -7 17 -26
62 -41 100 -15 39 -30 74 -34 78 -4 4 -15 -14 -25 -40z m48 -100 c39 -102 41
-96 -30 -99 l-62 -3 21 52 c11 29 25 67 31 85 6 17 11 32 12 32 1 0 14 -30 28
-67z"/>
<path d="M14170 3371 c0 -183 1 -191 20 -191 18 0 20 9 22 130 l3 130 60 -87
c33 -47 77 -111 98 -141 l37 -54 1 61 c0 34 1 90 1 126 0 190 -1 195 -20 195
-16 0 -18 -11 -17 -129 0 -71 -2 -128 -5 -126 -3 2 -28 36 -55 76 -28 40 -71
102 -97 137 l-47 64 -1 -191z"/>
<path d="M5573 3538 c-39 -10 -73 -51 -73 -88 0 -47 34 -78 113 -101 85 -25
107 -42 107 -80 0 -38 -33 -59 -93 -59 -38 0 -53 5 -72 25 -26 25 -49 35 -53
23 -11 -37 35 -77 95 -83 93 -9 163 36 163 104 0 46 -36 76 -117 100 -73 22
-103 44 -103 78 0 57 104 76 156 28 28 -26 50 -21 38 8 -15 40 -96 63 -161 45z"/>
<path d="M9255 3533 c-121 -50 -156 -203 -67 -296 39 -42 78 -59 133 -59 87 1
164 62 183 145 l6 27 -95 0 c-75 0 -95 -3 -95 -14 0 -18 14 -22 83 -20 63 1
70 -7 37 -48 -45 -58 -145 -69 -206 -23 -44 34 -57 59 -58 117 0 51 18 85 66
121 58 44 162 26 196 -32 18 -32 37 -45 53 -35 20 12 -36 86 -84 110 -42 22
-107 25 -152 7z"/>
<path d="M12015 3365 c0 -171 1 -185 17 -185 10 0 18 6 19 13 0 6 0 66 -1 132
l-1 120 66 -90 c36 -49 80 -111 97 -137 16 -27 33 -48 37 -48 3 0 6 82 6 183
0 172 -2 182 -20 182 -17 0 -19 -9 -18 -128 l1 -129 -46 64 c-26 35 -69 96
-96 136 -27 40 -52 72 -55 72 -3 0 -6 -83 -6 -185z"/>
<path d="M12794 3530 c-142 -64 -149 -261 -13 -331 97 -49 214 -8 255 90 25
60 24 61 -80 61 -85 0 -94 -2 -89 -18 4 -15 14 -17 72 -16 64 2 68 1 64 -17
-7 -26 -69 -79 -96 -81 -87 -6 -144 19 -171 76 -75 159 132 294 244 158 49
-59 79 -50 40 12 -41 68 -152 100 -226 66z"/>
<path d="M1910 3360 c0 -169 1 -180 19 -180 17 0 18 11 19 180 1 171 0 180
-19 180 -18 0 -19 -9 -19 -180z"/>
<path d="M2390 3361 c0 -169 1 -181 18 -181 16 0 19 9 20 65 0 36 3 69 6 74
11 17 41 0 66 -37 14 -20 35 -48 48 -62 12 -14 22 -28 22 -32 0 -5 11 -8 25
-8 23 0 35 14 18 22 -16 7 -96 119 -89 125 3 3 6 3 6 -1 0 -3 14 1 30 9 64 33
77 126 24 176 -22 21 -37 24 -110 28 l-84 3 0 -181z m172 123 c24 -23 24 -78
-2 -104 -15 -15 -33 -20 -75 -20 -30 0 -55 3 -56 8 -6 88 -2 132 11 135 33 8
104 -4 122 -19z"/>
<path d="M3550 3360 l0 -182 91 4 c87 4 93 6 115 33 13 16 25 38 26 50 8 44
-23 105 -53 105 -8 0 -6 7 5 19 9 10 19 34 22 53 5 27 1 40 -19 64 -23 27 -31
29 -106 32 l-81 4 0 -182z m157 129 c18 -15 17 -64 -2 -79 -8 -7 -37 -14 -64
-16 l-49 -5 -3 38 c-8 77 -4 82 53 77 28 -2 57 -9 65 -15z m4 -143 c23 -10 40
-53 33 -80 -3 -13 -16 -29 -30 -36 -31 -17 -117 -19 -124 -3 -3 6 -4 39 -2 71
l4 59 51 -2 c29 -1 59 -5 68 -9z"/>
<path d="M4200 3360 l0 -180 105 0 c95 0 105 2 105 18 0 16 -9 18 -81 17 -44
-1 -83 3 -86 7 -9 15 -9 109 0 115 5 3 44 5 88 5 71 0 79 2 79 19 0 17 -8 19
-85 19 -68 0 -85 3 -86 15 0 8 -1 36 -2 63 l-1 47 80 1 c106 2 104 2 98 19 -5
12 -27 15 -110 15 l-104 0 0 -180z"/>
<path d="M4859 3523 c0 -10 -1 -91 -2 -181 -2 -157 -1 -162 18 -162 19 0 21 6
20 70 -2 67 -1 70 22 70 17 0 37 -19 75 -70 39 -52 59 -70 76 -70 l23 0 -22
33 c-13 17 -26 34 -29 37 -29 25 -64 90 -40 75 5 -3 25 9 45 27 41 39 52 85
31 127 -25 47 -57 61 -141 61 -64 0 -75 -2 -76 -17z m174 -44 c23 -28 18 -84
-10 -105 -10 -7 -43 -14 -74 -14 l-56 0 2 73 c2 39 3 72 4 73 0 0 27 0 58 -1
46 -2 60 -6 76 -26z"/>
<path d="M6180 3361 c0 -172 1 -181 19 -181 19 0 20 8 18 177 -2 161 -4 178
-19 181 -17 3 -18 -11 -18 -177z"/>
<path d="M6660 3360 c0 -170 1 -180 19 -180 17 0 19 8 17 80 l-1 80 83 0 82 0
0 -80 c0 -72 2 -80 19 -80 18 0 19 10 20 180 0 173 0 180 -19 180 -18 0 -20
-7 -20 -80 l0 -81 -82 3 -82 3 1 78 c1 70 0 77 -18 77 -18 0 -19 -9 -19 -180z"/>
<path d="M7850 3361 c0 -172 1 -181 19 -181 15 0 19 7 19 28 0 15 0 48 1 73
l1 46 44 -4 c92 -8 154 48 141 127 -4 21 -17 48 -31 61 -22 21 -38 25 -110 28
l-84 3 0 -181z m172 119 c10 -12 18 -37 18 -56 0 -45 -29 -64 -101 -64 -52 0
-55 2 -53 23 1 12 3 45 3 73 l1 51 57 -2 c45 -3 61 -8 75 -25z"/>
<path d="M8495 3360 l0 -180 107 0 c89 0 108 3 108 15 0 17 0 17 -90 20 -36 1
-71 3 -77 4 -9 1 -13 20 -13 61 l0 60 48 1 c26 1 63 1 83 1 29 -1 38 3 42 18
5 19 0 20 -85 20 l-90 0 4 63 3 62 85 0 c72 1 85 3 88 18 3 15 -8 17 -105 17
l-108 0 0 -180z"/>
<path d="M9930 3398 c0 -135 1 -142 25 -174 54 -71 198 -59 230 19 8 21 13 79
13 165 0 122 -2 132 -19 132 -18 0 -19 -10 -18 -134 0 -148 -6 -170 -56 -186
-47 -16 -109 0 -126 32 -7 13 -12 76 -12 155 0 123 -1 133 -18 133 -18 0 -19
-10 -19 -142z"/>
<path d="M11310 3403 c0 -153 12 -192 68 -215 38 -15 105 -12 142 7 47 25 58
62 59 213 2 126 1 132 -19 132 -19 0 -20 -6 -20 -137 -1 -100 -4 -143 -14
-156 -33 -42 -135 -43 -163 0 -13 19 -16 52 -16 159 0 124 -1 134 -18 134 -18
0 -19 -10 -19 -137z"/>
</g>
</svg>
